<?xml version="1.0" encoding="utf-8"?>
<!-- Generated by Mocodo 4.2.12 -->
<svg width="888" height="675" viewBox="0 0 888 675" xmlns="http://www.w3.org/2000/svg">
<rect x="0" y="0" width="888" height="675" fill="#f7f7f7" stroke="none" stroke-width="0"/>

<!-- Association LISTE_CHARGES_VARIABLES -->
<g>
	<line x1="648" y1="245" x2="648" y2="102" stroke="#4393c3" stroke-width="2"/>
	<line x1="455" y1="102" x2="648" y2="102" stroke="#4393c3" stroke-width="2"/>
	<g>
		<path d="M731 77 a14 14 90 0 1 14 14 V102 h-194 V91 a14 14 90 0 1 14 -14" fill="#92c5de" stroke="#92c5de" stroke-width="0"/>
		<path d="M745 102 v11 a14 14 90 0 1 -14 14 H565 a14 14 90 0 1 -14 -14 V102 H194" fill="#d1e5f0" stroke="#d1e5f0" stroke-width="0"/>
		<rect x="551" y="77" width="194" height="50" fill="none" rx="14" stroke="#4393c3" stroke-width="2"/>
		<line x1="551" y1="102" x2="745" y2="102" stroke="#4393c3" stroke-width="1"/>
		<text x="559" y="94.75" fill="#000000" font-family="Verdana" font-size="12">LISTE_CHARGES_VARIABLES</text>
	</g>
	<text x="653" y="178" fill="#b2182b" font-family="Verdana" font-size="12">1,n</text>
	<text x="524" y="119" fill="#b2182b" font-family="Verdana" font-size="12">1,n</text>
</g>

<!-- Association PAIE_CHARGE_VARIABLE -->
<g>
	<line x1="277" y1="506" x2="94" y2="245" stroke="#4393c3" stroke-width="2"/>
	<line x1="455" y1="102" x2="94" y2="245" stroke="#4393c3" stroke-width="2"/>
	<g>
		<path d="M165 220 a14 14 90 0 1 14 14 V245 h-170 V234 a14 14 90 0 1 14 -14" fill="#92c5de" stroke="#92c5de" stroke-width="0"/>
		<path d="M179 245 v11 a14 14 90 0 1 -14 14 H23 a14 14 90 0 1 -14 -14 V245 H170" fill="#d1e5f0" stroke="#d1e5f0" stroke-width="0"/>
		<rect x="9" y="220" width="170" height="50" fill="none" rx="14" stroke="#4393c3" stroke-width="2"/>
		<line x1="9" y1="245" x2="179" y2="245" stroke="#4393c3" stroke-width="1"/>
		<text x="16" y="237.75" fill="#000000" font-family="Verdana" font-size="12">PAIE_CHARGE_VARIABLE</text>
	</g>
	<text x="235.29" y="439" fill="#b2182b" font-family="Verdana" font-size="12">1,n</text>
	<text x="365" y="122.45" fill="#b2182b" font-family="Verdana" font-size="12">1,n</text>
</g>

<!-- Association LISTE_CHARGES_FIXES -->
<g>
	<line x1="648" y1="245" x2="455" y2="245" stroke="#4393c3" stroke-width="2"/>
	<line x1="277" y1="245" x2="455" y2="245" stroke="#4393c3" stroke-width="2"/>
	<g>
		<path d="M521 220 a14 14 90 0 1 14 14 V245 h-160 V234 a14 14 90 0 1 14 -14" fill="#92c5de" stroke="#92c5de" stroke-width="0"/>
		<path d="M535 245 v11 a14 14 90 0 1 -14 14 H389 a14 14 90 0 1 -14 -14 V245 H160" fill="#d1e5f0" stroke="#d1e5f0" stroke-width="0"/>
		<rect x="375" y="220" width="160" height="50" fill="none" rx="14" stroke="#4393c3" stroke-width="2"/>
		<line x1="375" y1="245" x2="535" y2="245" stroke="#4393c3" stroke-width="1"/>
		<text x="382" y="237.75" fill="#000000" font-family="Verdana" font-size="12">LISTE_CHARGES_FIXES</text>
	</g>
	<text x="569" y="237" fill="#b2182b" font-family="Verdana" font-size="12">1,n</text>
	<text x="348" y="262" fill="#b2182b" font-family="Verdana" font-size="12">1,n</text>
</g>

<!-- Association LISTE_TRANSACTION -->
<g>
	<line x1="648" y1="245" x2="806" y2="245" stroke="#4393c3" stroke-width="2"/>
	<line x1="806" y1="371" x2="806" y2="245" stroke="#4393c3" stroke-width="2"/>
	<g>
		<path d="M865 220 a14 14 90 0 1 14 14 V245 h-146 V234 a14 14 90 0 1 14 -14" fill="#92c5de" stroke="#92c5de" stroke-width="0"/>
		<path d="M879 245 v11 a14 14 90 0 1 -14 14 H747 a14 14 90 0 1 -14 -14 V245 H146" fill="#d1e5f0" stroke="#d1e5f0" stroke-width="0"/>
		<rect x="733" y="220" width="146" height="50" fill="none" rx="14" stroke="#4393c3" stroke-width="2"/>
		<line x1="733" y1="245" x2="879" y2="245" stroke="#4393c3" stroke-width="1"/>
		<text x="740" y="237.75" fill="#000000" font-family="Verdana" font-size="12">LISTE_TRANSACTION</text>
	</g>
	<text x="706" y="262" fill="#b2182b" font-family="Verdana" font-size="12">1,n</text>
	<text x="811" y="287" fill="#b2182b" font-family="Verdana" font-size="12">1,n</text>
</g>

<!-- Association PAIE_CHARGE_FIX -->
<g>
	<line x1="277" y1="506" x2="277" y2="371" stroke="#4393c3" stroke-width="2"/>
	<line x1="277" y1="245" x2="277" y2="371" stroke="#4393c3" stroke-width="2"/>
	<g>
		<path d="M328 346 a14 14 90 0 1 14 14 V371 h-130 V360 a14 14 90 0 1 14 -14" fill="#92c5de" stroke="#92c5de" stroke-width="0"/>
		<path d="M342 371 v11 a14 14 90 0 1 -14 14 H226 a14 14 90 0 1 -14 -14 V371 H130" fill="#d1e5f0" stroke="#d1e5f0" stroke-width="0"/>
		<rect x="212" y="346" width="130" height="50" fill="none" rx="14" stroke="#4393c3" stroke-width="2"/>
		<line x1="212" y1="371" x2="342" y2="371" stroke="#4393c3" stroke-width="1"/>
		<text x="220" y="363.75" fill="#000000" font-family="Verdana" font-size="12">PAIE_CHARGE_FIX</text>
	</g>
	<text x="282" y="439" fill="#b2182b" font-family="Verdana" font-size="12">1,n</text>
	<text x="282" y="338" fill="#b2182b" font-family="Verdana" font-size="12">1,n</text>
</g>

<!-- Association CREE -->
<g>
	<line x1="277" y1="506" x2="455" y2="371" stroke="#4393c3" stroke-width="2"/>
	<line x1="648" y1="245" x2="455" y2="371" stroke="#4393c3" stroke-width="2"/>
	<g>
		<path d="M465 346 a14 14 90 0 1 14 14 V371 h-48 V360 a14 14 90 0 1 14 -14" fill="#92c5de" stroke="#92c5de" stroke-width="0"/>
		<path d="M479 371 v11 a14 14 90 0 1 -14 14 H445 a14 14 90 0 1 -14 -14 V371 H48" fill="#d1e5f0" stroke="#d1e5f0" stroke-width="0"/>
		<rect x="431" y="346" width="48" height="50" fill="none" rx="14" stroke="#4393c3" stroke-width="2"/>
		<line x1="431" y1="371" x2="479" y2="371" stroke="#4393c3" stroke-width="1"/>
		<text x="439" y="363.75" fill="#000000" font-family="Verdana" font-size="12">CRÉE</text>
	</g>
	<text x="329" y="481.64" fill="#b2182b" font-family="Verdana" font-size="12">1,n</text>
	<text x="569" y="276.62" fill="#b2182b" font-family="Verdana" font-size="12">1,n</text>
</g>

<!-- Association LISTE -->
<g>
	<line x1="648" y1="245" x2="648" y2="371" stroke="#4393c3" stroke-width="2"/>
	<line x1="648" y1="506" x2="648" y2="371" stroke="#4393c3" stroke-width="2"/>
	<g>
		<path d="M659 346 a14 14 90 0 1 14 14 V371 h-50 V360 a14 14 90 0 1 14 -14" fill="#92c5de" stroke="#92c5de" stroke-width="0"/>
		<path d="M673 371 v11 a14 14 90 0 1 -14 14 H637 a14 14 90 0 1 -14 -14 V371 H50" fill="#d1e5f0" stroke="#d1e5f0" stroke-width="0"/>
		<rect x="623" y="346" width="50" height="50" fill="none" rx="14" stroke="#4393c3" stroke-width="2"/>
		<line x1="623" y1="371" x2="673" y2="371" stroke="#4393c3" stroke-width="1"/>
		<text x="630" y="363.75" fill="#000000" font-family="Verdana" font-size="12">LISTE</text>
	</g>
	<text x="653" y="321" fill="#b2182b" font-family="Verdana" font-size="12">1,n</text>
	<text x="653" y="413" fill="#b2182b" font-family="Verdana" font-size="12">1,n</text>
</g>

<!-- Association VISE -->
<g>
	<line x1="277" y1="506" x2="455" y2="506" stroke="#4393c3" stroke-width="2"/>
	<line x1="648" y1="506" x2="455" y2="506" stroke="#4393c3" stroke-width="2"/>
	<g>
		<path d="M463 481 a14 14 90 0 1 14 14 V506 h-44 V495 a14 14 90 0 1 14 -14" fill="#92c5de" stroke="#92c5de" stroke-width="0"/>
		<path d="M477 506 v11 a14 14 90 0 1 -14 14 H447 a14 14 90 0 1 -14 -14 V506 H44" fill="#d1e5f0" stroke="#d1e5f0" stroke-width="0"/>
		<rect x="433" y="481" width="44" height="50" fill="none" rx="14" stroke="#4393c3" stroke-width="2"/>
		<line x1="433" y1="506" x2="477" y2="506" stroke="#4393c3" stroke-width="1"/>
		<text x="440" y="498.75" fill="#000000" font-family="Verdana" font-size="12">VISE</text>
	</g>
	<text x="329" y="523" fill="#b2182b" font-family="Verdana" font-size="12">1,n</text>
	<text x="550" y="523" fill="#b2182b" font-family="Verdana" font-size="12">1,n</text>
</g>

<!-- Association INSERE -->
<g>
	<line x1="806" y1="371" x2="648" y2="641" stroke="#4393c3" stroke-width="2"/>
	<line x1="277" y1="506" x2="648" y2="641" stroke="#4393c3" stroke-width="2"/>
	<g>
		<path d="M665 616 a14 14 90 0 1 14 14 V641 h-62 V630 a14 14 90 0 1 14 -14" fill="#92c5de" stroke="#92c5de" stroke-width="0"/>
		<path d="M679 641 v11 a14 14 90 0 1 -14 14 H631 a14 14 90 0 1 -14 -14 V641 H62" fill="#d1e5f0" stroke="#d1e5f0" stroke-width="0"/>
		<rect x="617" y="616" width="62" height="50" fill="none" rx="14" stroke="#4393c3" stroke-width="2"/>
		<line x1="617" y1="641" x2="679" y2="641" stroke="#4393c3" stroke-width="1"/>
		<text x="625" y="633.75" fill="#000000" font-family="Verdana" font-size="12">INSÈRE</text>
	</g>
	<text x="761.99" y="464" fill="#b2182b" font-family="Verdana" font-size="12">n,1</text>
	<text x="329" y="517.95" fill="#b2182b" font-family="Verdana" font-size="12">1,1</text>
</g>

<!-- Entity CHARGE_VARIABLE -->
<g>
	<g>
		<rect x="391" y="9" width="128" height="25" fill="#f4a582" stroke="none" stroke-width="0" opacity="1"/>
		<rect x="391" y="34" width="128" height="161" fill="#fddbc7" stroke="none" stroke-width="0" opacity="1"/>
		<rect x="391" y="9" width="128" height="186" fill="none" stroke="#d6604d" stroke-width="2" opacity="1"/>
		<line x1="391" y1="34" x2="519" y2="34" stroke="#d6604d" stroke-width="1"/>
	</g>
	<text x="397" y="26.75" fill="#000000" font-family="Verdana" font-size="12">CHARGE VARIABLE</text>
	<text x="396" y="51.8" fill="#000000" font-family="Verdana" font-size="12">fixe_liability_id</text>
	<line x1="396" y1="54" x2="488" y2="54" stroke="#000000" stroke-width="1"/>
	<text x="396" y="68.8" fill="#000000" font-family="Verdana" font-size="12">liability_name</text>
	<text x="396" y="85.8" fill="#000000" font-family="Verdana" font-size="12">origin</text>
	<text x="396" y="102.8" fill="#000000" font-family="Verdana" font-size="12">sum</text>
	<text x="396" y="119.8" fill="#000000" font-family="Verdana" font-size="12">frequence</text>
	<text x="396" y="136.8" fill="#000000" font-family="Verdana" font-size="12">starting_date</text>
	<text x="396" y="153.8" fill="#000000" font-family="Verdana" font-size="12">ending_date</text>
	<text x="396" y="170.8" fill="#000000" font-family="Verdana" font-size="12">category_id</text>
	<text x="396" y="187.8" fill="#000000" font-family="Verdana" font-size="12">user_id</text>
</g>

<!-- Entity CHARGE_FIXE -->
<g>
	<g>
		<rect x="211" y="169" width="132" height="25" fill="#f4a582" stroke="none" stroke-width="0" opacity="1"/>
		<rect x="211" y="194" width="132" height="127" fill="#fddbc7" stroke="none" stroke-width="0" opacity="1"/>
		<rect x="211" y="169" width="132" height="152" fill="none" stroke="#d6604d" stroke-width="2" opacity="1"/>
		<line x1="211" y1="194" x2="343" y2="194" stroke="#d6604d" stroke-width="1"/>
	</g>
	<text x="235" y="186.75" fill="#000000" font-family="Verdana" font-size="12">CHARGE FIXE</text>
	<text x="216" y="211.8" fill="#000000" font-family="Verdana" font-size="12">ponctual_liability_id</text>
	<line x1="216" y1="214" x2="337" y2="214" stroke="#000000" stroke-width="1"/>
	<text x="216" y="228.8" fill="#000000" font-family="Verdana" font-size="12">liability_name</text>
	<text x="216" y="245.8" fill="#000000" font-family="Verdana" font-size="12">origin</text>
	<text x="216" y="262.8" fill="#000000" font-family="Verdana" font-size="12">sum</text>
	<text x="216" y="279.8" fill="#000000" font-family="Verdana" font-size="12">date</text>
	<text x="216" y="296.8" fill="#000000" font-family="Verdana" font-size="12">category_id</text>
	<text x="216" y="313.8" fill="#000000" font-family="Verdana" font-size="12">user_id</text>
</g>

<!-- Entity CATEGORIE -->
<g>
	<g>
		<rect x="595" y="186" width="106" height="25" fill="#f4a582" stroke="none" stroke-width="0" opacity="1"/>
		<rect x="595" y="211" width="106" height="93" fill="#fddbc7" stroke="none" stroke-width="0" opacity="1"/>
		<rect x="595" y="186" width="106" height="118" fill="none" stroke="#d6604d" stroke-width="2" opacity="1"/>
		<line x1="595" y1="211" x2="701" y2="211" stroke="#d6604d" stroke-width="1"/>
	</g>
	<text x="612" y="203.75" fill="#000000" font-family="Verdana" font-size="12">CATÉGORIE</text>
	<text x="600" y="228.8" fill="#000000" font-family="Verdana" font-size="12">category_id</text>
	<line x1="600" y1="231" x2="672" y2="231" stroke="#000000" stroke-width="1"/>
	<text x="600" y="245.8" fill="#000000" font-family="Verdana" font-size="12">category_name</text>
	<text x="600" y="262.8" fill="#000000" font-family="Verdana" font-size="12">category_type</text>
	<text x="600" y="279.8" fill="#000000" font-family="Verdana" font-size="12">nature_type</text>
	<text x="600" y="296.8" fill="#000000" font-family="Verdana" font-size="12">user_id</text>
</g>

<!-- Entity TRANSACTION -->
<g>
	<g>
		<rect x="756" y="295" width="100" height="25" fill="#f4a582" stroke="none" stroke-width="0" opacity="1"/>
		<rect x="756" y="320" width="100" height="127" fill="#fddbc7" stroke="none" stroke-width="0" opacity="1"/>
		<rect x="756" y="295" width="100" height="152" fill="none" stroke="#d6604d" stroke-width="2" opacity="1"/>
		<line x1="756" y1="320" x2="856" y2="320" stroke="#d6604d" stroke-width="1"/>
	</g>
	<text x="761" y="312.75" fill="#000000" font-family="Verdana" font-size="12">TRANSACTION</text>
	<text x="761" y="337.8" fill="#000000" font-family="Verdana" font-size="12">transaction_id</text>
	<line x1="761" y1="340" x2="848" y2="340" stroke="#000000" stroke-width="1"/>
	<text x="761" y="354.8" fill="#000000" font-family="Verdana" font-size="12">sum</text>
	<text x="761" y="371.8" fill="#000000" font-family="Verdana" font-size="12">date</text>
	<text x="761" y="388.8" fill="#000000" font-family="Verdana" font-size="12">type</text>
	<text x="761" y="405.8" fill="#000000" font-family="Verdana" font-size="12">origin</text>
	<text x="761" y="422.8" fill="#000000" font-family="Verdana" font-size="12">category_id</text>
	<text x="761" y="439.8" fill="#000000" font-family="Verdana" font-size="12">user_id</text>
</g>

<!-- Entity UTILISATEUR -->
<g>
	<g>
		<rect x="230" y="447" width="94" height="25" fill="#f4a582" stroke="none" stroke-width="0" opacity="1"/>
		<rect x="230" y="472" width="94" height="93" fill="#fddbc7" stroke="none" stroke-width="0" opacity="1"/>
		<rect x="230" y="447" width="94" height="118" fill="none" stroke="#d6604d" stroke-width="2" opacity="1"/>
		<line x1="230" y1="472" x2="324" y2="472" stroke="#d6604d" stroke-width="1"/>
	</g>
	<text x="236" y="464.75" fill="#000000" font-family="Verdana" font-size="12">UTILISATEUR</text>
	<text x="235" y="489.8" fill="#000000" font-family="Verdana" font-size="12">user_id</text>
	<line x1="235" y1="492" x2="281" y2="492" stroke="#000000" stroke-width="1"/>
	<text x="235" y="506.8" fill="#000000" font-family="Verdana" font-size="12">firstname</text>
	<text x="235" y="523.8" fill="#000000" font-family="Verdana" font-size="12">lastname</text>
	<text x="235" y="540.8" fill="#000000" font-family="Verdana" font-size="12">email</text>
	<text x="235" y="557.8" fill="#000000" font-family="Verdana" font-size="12">password</text>
</g>

<!-- Entity OBJECTIF_D_EPARGNE -->
<g>
	<g>
		<rect x="576" y="421" width="144" height="25" fill="#f4a582" stroke="none" stroke-width="0" opacity="1"/>
		<rect x="576" y="446" width="144" height="145" fill="#fddbc7" stroke="none" stroke-width="0" opacity="1"/>
		<rect x="576" y="421" width="144" height="170" fill="none" stroke="#d6604d" stroke-width="2" opacity="1"/>
		<line x1="576" y1="446" x2="720" y2="446" stroke="#d6604d" stroke-width="1"/>
	</g>
	<text x="582" y="438.75" fill="#000000" font-family="Verdana" font-size="12">OBJECTIF D’ÉPARGNE</text>
	<text x="581" y="463.8" fill="#000000" font-family="Verdana" font-size="12">goal_id</text>
	<line x1="581" y1="466" x2="626" y2="466" stroke="#000000" stroke-width="1"/>
	<text x="581" y="480.8" fill="#000000" font-family="Verdana" font-size="12">goal_name</text>
	<text x="581" y="497.8" fill="#000000" font-family="Verdana" font-size="12">goal_sum</text>
	<text x="581" y="514.8" fill="#000000" font-family="Verdana" font-size="12">actual_sum</text>
	<text x="581" y="531.8" fill="#000000" font-family="Verdana" font-size="12">starting_date</text>
	<text x="581" y="548.8" fill="#000000" font-family="Verdana" font-size="12">ending_date</text>
	<text x="581" y="565.8" fill="#000000" font-family="Verdana" font-size="12">category_id</text>
	<text x="581" y="582.8" fill="#000000" font-family="Verdana" font-size="12">user_id</text>
</g>
</svg>